[img]http://2.bp.blogspot.com/_7m0x64tKvQQ/TLM_zNuJREI/AAAAAAAAAq8/ZTOsed_321Y/s1600/elsamma_enna_aankutty_stills_%2B%286%29.jpg[/img]

[code]
General

Format                           : AVI
Format/Info                      : Audio Video Interleave
File size                        : 694 MiB
Duration                         : 2h 22mn
Overall bit rate                 : 679 Kbps
Writing application              : VirtualDubMod 1.5.10.2 (build 2540/release)
Writing library                  : VirtualDubMod build 2540/release

Video
ID                               : 0
Format                           : MPEG-4 Visual
Format profile                   : Advanced Simple@L5
Format settings, BVOP            : 2
Format settings, QPel            : Yes
Format settings, GMC             : No warppoints
Format settings, Matrix          : Default (H.263)
Codec ID                         : XVID
Codec ID/Hint                    : XviD
Duration                         : 2h 22mn
Bit rate                         : 541 Kbps
Width                            : 640 pixels
Height                           : 272 pixels
Display aspect ratio             : 2.35:1
Frame rate                       : 23.976 fps
Color space                      : YUV
Chroma subsampling               : 4:2:0
Bit depth                        : 8 bits
Scan type                        : Progressive
Compression mode                 : Lossy
Bits/(Pixel*Frame)               : 0.130
Stream size                      : 554 MiB (80%)
Writing library                  : XviD 1.2.1 (UTC 2008-12-04)

Audio
ID                               : 1
Format                           : MPEG Audio
Format version                   : Version 1
Format profile                   : Layer 3
Mode                             : Joint stereo
Mode extension                   : MS Stereo
Codec ID                         : 55
Codec ID/Hint                    : MP3
Duration                         : 2h 22mn
Bit rate mode                    : Constant
Bit rate                         : 128 Kbps
Channel(s)                       : 2 channels
Sampling rate                    : 44.1 KHz
Compression mode                 : Lossy
Delay relative to video          : 5s 989ms
Stream size                      : 131 MiB (19%)
Alignment                        : Split accross interleaves
Interleave, duration             : 42 ms (1.00 video frame)
Interleave, preload duration     : 500 ms
Writing library                  : LAME3.98.2  

[/code]

[url=http://www.phyrefile.com/image/view/qBp2ppwlSxkfi7eg][img]http://thumb.phyrefile.com/s/sh/shahaz/2011/04/11/300/1_001.jpg[/img][/url]
[url=http://www.phyrefile.com/image/view/s3lDm3uqd6WWZQHN][img]http://thumb.phyrefile.com/s/sh/shahaz/2011/04/11/300/2_001.jpg[/img][/url]
[url=http://www.phyrefile.com/image/view/qGjm0AD7clHkouWO][img]http://thumb.phyrefile.com/s/sh/shahaz/2011/04/11/300/3_001.jpg[/img][/url]
[url=http://www.phyrefile.com/image/view/psJ0BrdSEg3R6aYA][img]http://thumb.phyrefile.com/s/sh/shahaz/2011/04/11/300/4_001.jpg[/img][/url]
[url=http://www.phyrefile.com/image/view/Kmnm39Fv1fvDMDx4][img]http://thumb.phyrefile.com/s/sh/shahaz/2011/04/11/300/5_001.jpg[/img][/url]
[url=http://www.phyrefile.com/image/view/yAHbNwbJSvPNQCkU][img]http://thumb.phyrefile.com/s/sh/shahaz/2011/04/11/300/6_001.jpg[/img][/url]
[url=http://www.phyrefile.com/image/view/rT5sSKVzolSARZXM][img]http://thumb.phyrefile.com/s/sh/shahaz/2011/04/11/300/7_001.jpg[/img][/url]
[url=http://www.phyrefile.com/image/view/sy25g2dO4q82Q56p][img]http://thumb.phyrefile.com/s/sh/shahaz/2011/04/11/300/8_001.jpg[/img][/url]
[url=http://www.phyrefile.com/image/view/jSejSSP4hQKAC3Uh][img]http://thumb.phyrefile.com/s/sh/shahaz/2011/04/11/300/9_001.jpg[/img][/url]
[url=http://www.phyrefile.com/image/view/wVcPGvHm75f2bJOj][img]http://thumb.phyrefile.com/s/sh/shahaz/2011/04/11/300/10_001.jpg[/img][/url]
